<?xml version="1.0" encoding="utf-8"?>
<!-- Generator: Adobe Illustrator 21.1.0, SVG Export Plug-In . SVG Version: 6.00 Build 0)  -->
<svg version="1.1" xmlns="http://www.w3.org/2000/svg" xmlns:xlink="http://www.w3.org/1999/xlink" x="0px" y="0px"
	 viewBox="0 0 323 40" style="enable-background:new 0 0 323 40;" xml:space="preserve">
<style type="text/css">
    /* Styling */
    .title { fill: #ffffff; }
    .sub-title { fill: #ffffff; opacity:0.4; }
    /* Visibility */
    .visible { display: inline; }
    .hidden { display: none; }
</style>
<g id="Docs">
    <path id="docs" class="sub-title" d="M0,30.8h3.1c2.6,0,4.3,1.7,4.3,4.4s-1.7,4.4-4.3,4.4H0V30.8z M3,38c1.7,0,2.6-1.1,2.6-2.8
        S4.7,32.4,3,32.4H1.8v5.5L3,38L3,38z M12.8,39.7c-2.4,0-4.1-1.9-4.1-4.5s1.7-4.5,4.1-4.5s4.1,1.9,4.1,4.5
        C16.9,37.8,15.2,39.7,12.8,39.7z M12.8,32.3c-1.4,0-2.3,1.2-2.3,2.9s0.9,2.9,2.3,2.9s2.3-1.2,2.3-2.9S14.2,32.3,12.8,32.3z
        M22.5,30.7c1,0,1.7,0.3,2.3,0.7v1.8c-0.7-0.6-1.4-0.9-2.2-0.9c-1.6,0-2.6,1.1-2.6,2.8s1,2.8,2.6,2.8c0.8,0,1.5-0.3,2.2-0.8v1.8
        c-0.6,0.4-1.3,0.7-2.3,0.7c-2.5,0-4.3-1.8-4.3-4.5C18.2,32.5,20,30.7,22.5,30.7z M26.6,36.1v-5.2h1.8v5c0,1.5,0.7,2.2,1.8,2.2
        s1.8-0.7,1.8-2.2v-5h1.8v5.2c0,2.4-1.4,3.6-3.6,3.6C28.1,39.7,26.6,38.5,26.6,36.1z M40.2,37.7L37.7,34v5.6h-1.8v-8.7h1.7l2.6,4.1
        l2.6-4.1h1.7v8.7h-1.8V34L40.2,37.7L40.2,37.7z M52.7,30.8v1.6h-4.1v1.9h3.7v1.5h-3.7v2.1h4.1v1.6h-5.9v-8.7
        C46.8,30.8,52.7,30.8,52.7,30.8z M61.9,39.6h-1.4l-4.1-5.8v5.8h-1.7v-8.7h1.7l3.8,5.5v-5.5h1.7V39.6z M63.4,30.8h7.4v1.6H68v7.1
        h-1.8v-7.1h-2.8C63.4,32.4,63.4,30.8,63.4,30.8z M75.9,30.8l3.3,8.7h-1.8l-0.8-2.1h-3.3l-0.8,2.1h-1.8l3.3-8.7
        C74,30.8,75.9,30.8,75.9,30.8z M73.9,35.9H76L74.9,33L73.9,35.9z M79.1,30.8h7.4v1.6h-2.8v7.1h-1.8v-7.1h-2.8
        C79.1,32.4,79.1,30.8,79.1,30.8z M89.8,39.6H88v-8.7h1.8V39.6z M95.6,39.7c-2.4,0-4.1-1.9-4.1-4.5s1.7-4.5,4.1-4.5s4.1,1.9,4.1,4.5
        C99.8,37.8,98.1,39.7,95.6,39.7z M95.6,32.3c-1.4,0-2.3,1.2-2.3,2.9s0.9,2.9,2.3,2.9s2.3-1.2,2.3-2.9S97,32.3,95.6,32.3z
        M108.8,39.6h-1.4l-4.1-5.8v5.8h-1.7v-8.7h1.7l3.8,5.5v-5.5h1.7V39.6z M118.7,30.8l3.3,8.7h-1.8l-0.8-2.1h-3.3l-0.8,2.1h-1.8
        l3.3-8.7C116.8,30.8,118.7,30.8,118.7,30.8z M116.8,35.9h2.1l-1.1-2.9L116.8,35.9z M130.8,39.6h-1.4l-4.1-5.8v5.8h-1.7v-8.7h1.7
        l3.8,5.5v-5.5h1.7V39.6z M133,30.8h3.1c2.6,0,4.3,1.7,4.3,4.4s-1.7,4.4-4.3,4.4H133V30.8z M136,38c1.7,0,2.6-1.1,2.6-2.8
        s-0.9-2.8-2.6-2.8h-1.2v5.5L136,38L136,38z M149.9,30.8l3.3,8.7h-1.8l-0.8-2.1h-3.3l-0.8,2.1h-1.8l3.3-8.7
        C148,30.8,149.9,30.8,149.9,30.8z M147.9,35.9h2.1l-1.1-2.9L147.9,35.9z M156.4,36.5v3h-1.8v-8.7h3.5c1.8,0,3.1,1,3.1,2.9
        c0,1.8-1.2,2.8-3.1,2.8H156.4z M158.1,32.4h-1.6V35h1.6c0.9,0,1.4-0.5,1.4-1.3C159.4,32.9,159,32.4,158.1,32.4z M164.6,39.6h-1.8
        v-8.7h1.8V39.6z M171.8,36.3v3.3H170v-8.7h3.6c1.8,0,3.1,1,3.1,2.8c0,1.4-0.8,2.3-2,2.6l2.3,3.4h-2l-2.2-3.3L171.8,36.3L171.8,36.3
        z M171.8,34.8h1.7c0.9,0,1.4-0.5,1.4-1.2s-0.5-1.2-1.4-1.2h-1.7V34.8z M184.3,30.8v1.6h-4.1v1.9h3.7v1.5h-3.7v2.1h4.1v1.6h-5.9
        v-8.7C178.4,30.8,184.3,30.8,184.3,30.8z M186.3,39.6v-8.7h5.8v1.6h-4v2.2h3.7v1.6h-3.7v3.3C188.1,39.6,186.3,39.6,186.3,39.6z
        M199.7,30.8v1.6h-4.1v1.9h3.7v1.5h-3.7v2.1h4.1v1.6h-5.9v-8.7C193.8,30.8,199.7,30.8,199.7,30.8z M203.5,36.3v3.3h-1.8v-8.7h3.6
        c1.8,0,3.1,1,3.1,2.8c0,1.4-0.8,2.3-2,2.6l2.3,3.4h-2l-2.2-3.3L203.5,36.3L203.5,36.3z M203.5,34.8h1.7c0.9,0,1.4-0.5,1.4-1.2
        s-0.5-1.2-1.4-1.2h-1.7V34.8z M216,30.8v1.6h-4.1v1.9h3.7v1.5h-3.7v2.1h4.1v1.6h-5.9v-8.7C210.1,30.8,216,30.8,216,30.8z
        M225.3,39.6h-1.4l-4.1-5.8v5.8H218v-8.7h1.7l3.8,5.5v-5.5h1.7v8.7H225.3z M231.4,30.7c1,0,1.7,0.3,2.3,0.7v1.8
        c-0.7-0.6-1.4-0.9-2.2-0.9c-1.6,0-2.6,1.1-2.6,2.8s1,2.8,2.6,2.8c0.8,0,1.5-0.3,2.2-0.8v1.8c-0.6,0.4-1.3,0.7-2.3,0.7
        c-2.5,0-4.3-1.8-4.3-4.5C227.1,32.5,228.9,30.7,231.4,30.7z M241.5,30.8v1.6h-4.1v1.9h3.7v1.5h-3.7v2.1h4.1v1.6h-5.9v-8.7
        C235.6,30.8,241.5,30.8,241.5,30.8z"/>
</g>
<g id="UWP">
    <path id="uwp" class="title" d="M16.3,3H9v18.5H7.3V3H0V1.5h16.3V3z M26.3,13.8v0.6H15.9c0,3.9,2.3,6,5.3,6c1.6,0,2.8-0.4,4.1-1.4
        v1.6c-1.1,0.9-2.5,1.3-4.2,1.3c-4.1,0-6.8-2.9-6.8-7.4s2.4-7.7,6.3-7.7C24.4,6.7,26.3,9.6,26.3,13.8z M24.8,13.1
        c-0.1-2.5-1.3-4.9-4.2-4.9c-2.4,0-4.2,1.8-4.6,4.9H24.8z M28.7,21.5h1.6V0.3h-1.6V21.5z M44.9,13.8v0.6H34.4c0,3.9,2.3,6,5.3,6
        c1.6,0,2.8-0.4,4.1-1.4v1.6c-1.1,0.9-2.5,1.3-4.2,1.3c-4.1,0-6.8-2.9-6.8-7.4s2.4-7.7,6.3-7.7C42.9,6.7,44.9,9.6,44.9,13.8z
        M43.3,13.1c-0.1-2.5-1.3-4.9-4.2-4.9c-2.4,0-4.2,1.8-4.6,4.9H43.3z M48.8,9.3V7h-1.6v14.5h1.6V11.4c0.7-1.9,2.1-3.1,3.9-3.1
        c0.5,0,0.9,0.1,1.3,0.3V6.9c-0.3-0.1-0.7-0.2-1.3-0.2C51,6.7,49.5,7.9,48.8,9.3z M56.6,1.5c-0.6,0-1.1,0.5-1.1,1.1s0.5,1.1,1.1,1.1
        s1.1-0.5,1.1-1.1C57.7,2,57.2,1.5,56.6,1.5z M55.8,21.5h1.6V7h-1.6V21.5z M71.8,7h-2.1l-7.3,6.3v-13h-1.6v21.2h1.6v-7.4l7.5,7.4h2
        L64,13.6L71.8,7z M96.5,13.4c0,4.7-2.6,6.9-6,6.9c-3.5,0-6-2.2-6-6.9V1.5h-1.7v12.2c0,5.5,3.4,8.2,7.7,8.2c4.3,0,7.7-2.7,7.7-8.2
        V1.5h-1.7V13.4z M101.8,21.5h1.7v-20h-1.7V21.5z M116.8,4.6c0-2,1.1-3.1,2.6-3.1c0.6,0,1,0.1,1.5,0.4V0.3c-0.5-0.2-1-0.3-1.6-0.3
        c-2.4,0-4.1,1.8-4.1,4.4V7h-2.4v1.4h2.4v13.1h1.6V8.4h3.4V7h-3.4V4.6z M133.2,14.3c0,4.5-2.6,7.5-6.4,7.5c-3.8,0-6.4-3.1-6.4-7.5
        c0-4.5,2.6-7.5,6.4-7.5C130.7,6.7,133.2,9.8,133.2,14.3z M131.6,14.3c0-3.7-1.9-6.1-4.8-6.1c-2.9,0-4.8,2.4-4.8,6.1
        s1.9,6.1,4.8,6.1C129.7,20.4,131.6,17.9,131.6,14.3z M137.3,9.3V7h-1.6v14.5h1.6V11.4c0.7-1.9,2.1-3.1,3.9-3.1
        c0.5,0,0.9,0.1,1.3,0.3V6.9c-0.3-0.1-0.7-0.2-1.3-0.2C139.5,6.7,138,7.9,137.3,9.3z M165.2,13.4c0,4.7-2.6,6.9-6,6.9
        c-3.5,0-6-2.2-6-6.9V1.5h-1.7v12.2c0,5.5,3.4,8.2,7.7,8.2s7.7-2.7,7.7-8.2V1.5h-1.7V13.4z M185.7,18.7L181,1.5h-1.4l-4.7,17.2
        l-4.6-17.2h-1.7l5.5,20.1h1.5l4.7-17.1l4.7,17.1h1.5L192,1.5h-1.6L185.7,18.7z M207.5,7.2c0,3.8-2.6,5.7-6.5,5.7h-5.4v8.7h-1.7V1.5
        h7.1C204.9,1.5,207.5,3.4,207.5,7.2z M205.8,7.2c0-2.6-1.8-4.2-4.9-4.2h-5.4v8.4h5.4C204,11.3,205.8,9.8,205.8,7.2z M76.3,6.4
        l0.5,0.8h-0.7l-0.4-0.7h-0.2v0.7h-0.6V4.9h1c0.5,0,0.8,0.3,0.8,0.8C76.7,6,76.5,6.3,76.3,6.4z M76.1,5.7c0-0.2-0.1-0.3-0.3-0.3
        h-0.3v0.5h0.3C76,5.9,76.1,5.8,76.1,5.7z M77.8,6c0,1.2-1,2.1-2.1,2.1S73.6,7.3,73.6,6c0-1.2,1-2.1,2.1-2.1S77.8,4.8,77.8,6z
        M77.4,6c0-1-0.8-1.8-1.7-1.8C74.7,4.3,74,5,74,6s0.8,1.8,1.7,1.8C76.7,7.8,77.4,7.1,77.4,6z"/>
</g>
</svg>